<svg xmlns="http://www.w3.org/2000/svg" xmlns:xlink="http://www.w3.org/1999/xlink" style="display:none" aria-hidden="true">
	<symbol id="i-palette" viewBox="0 0 24 24">
		<path fill="currentColor" d="M12 3a9 9 0 1 0 9 9c0-.46-.04-.92-.1-1.36a5.5 5.5 0 0 1-4.31-4.3A9 9 0 0 0 12 3m0 2c3.87 0 7 3.13 7 7 0 .39-.03.77-.1 1.14a3.5 3.5 0 0 0-2.73-2.73A7 7 0 0 0 12 5m-5 9a1.5 1.5 0 1 1 0-3 1.5 1.5 0 0 1 0 3m3-5a1.5 1.5 0 1 1 0-3 1.5 1.5 0 0 1 0 3m5 0a1.5 1.5 0 1 1 0-3 1.5 1.5 0 0 1 0 3m3 5a1.5 1.5 0 1 1 0-3 1.5 1.5 0 0 1 0 3"/>
	</symbol>
	<!-- post : file-text Lucide -->
	<symbol id="i-post" viewBox="0 0 24 24" fill="none" stroke="currentColor" stroke-width="2" stroke-linecap="round" stroke-linejoin="round">
		<path d="M15 2H6a2 2 0 0 0-2 2v16a2 2 0 0 0 2 2h12a2 2 0 0 0 2-2V7Z"/><path d="M14 2v4a2 2 0 0 0 2 2h4"/><path d="M10 9H8"/><path d="M16 13H8"/><path d="M16 17H8"/>
	</symbol>
	<!-- note : notebook-pen Lucide -->
	<symbol id="i-note" viewBox="0 0 24 24" fill="none" stroke="currentColor" stroke-width="2" stroke-linecap="round" stroke-linejoin="round">
		<path d="M13.4 2H6a2 2 0 0 0-2 2v16a2 2 0 0 0 2 2h12a2 2 0 0 0 2-2v-7.4"/><path d="M2 6h4"/><path d="M2 10h4"/><path d="M2 14h4"/><path d="M2 18h4"/><path d="M21.378 5.626a1 1 0 1 0-3.004-3.004l-5.01 5.012a2 2 0 0 0-.506.854l-.837 2.87a.5.5 0 0 0 .62.62l2.87-.837a2 2 0 0 0 .854-.506z"/>
	</symbol>
	<!-- event : flag Lucide -->
	<symbol id="i-event" viewBox="0 0 24 24" fill="none" stroke="currentColor" stroke-width="2" stroke-linecap="round" stroke-linejoin="round">
		<path d="M4 15s1-1 4-1 5 2 8 2 4-1 4-1V3s-1 1-4 1-5-2-8-2-4 1-4 1z"/><line x1="4" x2="4" y1="22" y2="15"/>
	</symbol>
</svg>
